<?xml version="1.0" encoding="UTF-8" standalone="no"?>
<svg
   xmlns:dc="http://purl.org/dc/elements/1.1/"
   xmlns:cc="http://creativecommons.org/ns#"
   xmlns:rdf="http://www.w3.org/1999/02/22-rdf-syntax-ns#"
   xmlns:svg="http://www.w3.org/2000/svg"
   xmlns="http://www.w3.org/2000/svg"
   viewBox="0 0 298.50668 92.293335"
   height="92.293335"
   width="298.50668"
   xml:space="preserve"
   id="svg2"
   version="1.1"><metadata
     id="metadata8"><rdf:RDF><cc:Work
         rdf:about=""><dc:format>image/svg+xml</dc:format><dc:type
           rdf:resource="http://purl.org/dc/dcmitype/StillImage" /></cc:Work></rdf:RDF></metadata><defs
     id="defs6" /><g
     transform="matrix(1.3333333,0,0,-1.3333333,0,92.293333)"
     id="g10"><g
       transform="scale(0.1)"
       id="g12"><path
         id="path14"
         style="fill:#f58113;fill-opacity:1;fill-rule:nonzero;stroke:none"
         d="m 2160.67,378.121 0.02,-0.016 78.11,67.879 H 647.344 L 632.551,378.121 H 2160.67" /><path
         id="path16"
         style="fill:#fde133;fill-opacity:1;fill-rule:nonzero;stroke:none"
         d="M 632.551,378.121 617.555,310.25 H 2211.18 l -50.51,67.871 H 632.551" /><path
         id="path18"
         style="fill:#f58113;fill-opacity:1;fill-rule:nonzero;stroke:none"
         d="M 411,445.785 394.973,378.32 h 149.386 l -21.894,-93.707 c -13.613,-60.965 -60.567,-109.89 -127.84,-109.89 -70.625,0 -127.246,56.031 -130.207,112.449 -0.391,7.301 0.199,17.949 3.75,32.551 l 39.855,170.648 c 6.903,31.371 27.418,54.645 55.235,71.016 23.476,13.816 47.941,19.922 75.16,19.922 H 572.18 L 489.121,692.188 477.883,648.984 H 426.98 C 343.328,649.965 261.855,588.027 243.313,507.926 l -14.399,-61.942 h -105.75 l 8.098,43.403 L 0,378.223 213.125,378.32 197.367,310.16 c 0.254,-0.898 -1.387,-15.203 -1.004,-24.57 4.336,-92.52 91.926,-169.059 183.66,-171.824 104.364,-3.161 185.645,60.761 208.532,159.988 l 39.652,172.031 H 411" /><path
         id="path20"
         style="fill:#fde133;fill-opacity:1;fill-rule:nonzero;stroke:none"
         d="M 0,378.223 84.7031,267.445 93.7734,310.25 H 197.348 c 0.011,0 0.015,-0.059 0.019,-0.09 L 213.125,378.32 0,378.223" /><path
         id="path22"
         style="fill:#fde133;fill-opacity:1;fill-rule:nonzero;stroke:none"
         d="M 363.258,561.387 C 335.441,545.016 314.926,521.742 308.023,490.371 L 268.168,319.723 c -3.551,-14.602 -4.141,-25.25 -3.75,-32.551 2.961,-56.418 59.582,-112.449 130.207,-112.449 67.273,0 114.227,48.925 127.84,109.89 l 21.894,93.707 H 394.973 l -16.121,-67.867 h 78.507 0.2 c -1.774,-16.371 -6.707,-35.316 -17.754,-48.137 -10.852,-11.832 -25.45,-19.734 -42.024,-20.324 -1.156,-0.039 -2.316,-0.039 -3.472,-0.023 -5.446,0.047 -10.895,0.761 -16.164,2.07 -0.063,0.016 -0.125,0.02 -0.192,0.039 -0.238,0.059 -0.48,0.137 -0.73,0.203 -25.383,6.496 -46.032,26.215 -43.907,52.301 0.145,2.211 0.457,4.477 0.942,6.77 l 39.062,168.472 c 2.758,12.824 9.868,23.473 20.52,30.973 16.176,11.242 37.281,12.816 57.012,10.457 l -0.036,-0.172 c 0.079,-0.012 0.157,-0.016 0.231,-0.031 l -10.008,-44.735 15.047,12.797 116.094,100.196 H 438.418 c -27.219,0 -51.684,-6.106 -75.16,-19.922" /><path
         id="path24"
         style="fill:#231f20;fill-opacity:1;fill-rule:nonzero;stroke:none"
         d="m 987.52,209.98 6.574,26.305 c 2.316,9.473 5.027,13.332 8.306,16.242 1.16,-4.261 4.06,-6.769 8.12,-6.769 6.97,0 14.31,7.539 16.63,16.621 2.12,9.09 -1.35,16.637 -8.12,16.637 -2.51,0 -5.6,-1.164 -8.9,-3.875 -2.51,-1.934 -6.18,-6.192 -9.08,-11.016 l 3.29,13.336 H 978.047 L 961.023,209.98 h 26.497" /><path
         id="path26"
         style="fill:#231f20;fill-opacity:1;fill-rule:nonzero;stroke:none"
         d="m 945.27,261.996 c 2.699,0 5.019,-2.703 3.476,-10.828 l -12.183,-0.191 c 1.164,6.964 5.609,11.019 8.707,11.019 z m -32.493,-46.984 c 3.676,-4.067 9.672,-6.578 15.664,-6.578 10.059,0 19.723,4.636 28.805,15.668 l 2.715,11.019 c -5.801,-5.219 -11.41,-7.348 -15.082,-7.348 -5.992,0 -9.863,4.446 -10.246,11.407 l 26.68,0.199 c 3.089,9.469 3.289,19.527 1.347,25.902 -2.508,8.313 -8.695,13.735 -19.14,13.735 -15.274,0 -29.579,-14.508 -34.805,-34.813 -2.899,-11.398 -1.738,-22.426 4.062,-29.191" /><path
         id="path28"
         style="fill:#231f20;fill-opacity:1;fill-rule:nonzero;stroke:none"
         d="m 858.242,209.98 8.125,32.293 c 5.992,-3.664 5.024,-12.179 3.672,-21.46 -0.582,-3.094 -1.16,-6.379 -2.129,-9.668 0,-0.391 -0.191,-0.774 -0.191,-1.165 h 25.902 c 5.422,19.922 5.031,29.969 -0.57,39.25 8.312,6.571 14.105,15.668 17.398,28.04 h -26.496 c -3.672,-13.145 -9.273,-19.532 -14.301,-22.04 l 9.86,40.02 h -26.293 l -21.278,-85.27 h 26.301" /><path
         id="path30"
         style="fill:#231f20;fill-opacity:1;fill-rule:nonzero;stroke:none"
         d="m 798.012,209.98 h 26.484 l 16.828,67.872 c -4.648,-3.094 -9.863,-4.84 -14.312,-4.84 -4.645,0 -8.891,1.746 -11.989,4.84 L 798.012,209.98" /><path
         id="path32"
         style="fill:#231f20;fill-opacity:1;fill-rule:nonzero;stroke:none"
         d="m 833.969,277.27 c 4.062,0 8.316,4.253 9.859,9.668 1.168,5.41 -0.957,9.863 -5.019,9.863 -4.063,0 -8.317,-4.453 -9.668,-9.863 -1.36,-5.219 0.582,-9.668 4.828,-9.668" /><path
         id="path34"
         style="fill:#231f20;fill-opacity:1;fill-rule:nonzero;stroke:none"
         d="m 790.754,209.98 21.465,85.27 h -26.492 l -21.27,-85.27 h 26.297" /><path
         id="path36"
         style="fill:#231f20;fill-opacity:1;fill-rule:nonzero;stroke:none"
         d="m 756.621,209.98 21.465,85.27 h -26.488 l -21.27,-85.27 h 26.293" /><path
         id="path38"
         style="fill:#231f20;fill-opacity:1;fill-rule:nonzero;stroke:none"
         d="m 700.063,224.48 c -1.551,-0.96 -3.485,-1.73 -4.836,-1.73 -2.704,0 -4.059,2.703 -3.098,6.18 0.777,3.101 3.293,5.8 6.191,5.8 1.16,0 2.711,-0.378 4.059,-1.156 z m -3.094,30.555 c 7.726,0 9.281,-5.601 8.113,-10.441 -2.312,0.969 -5.019,1.746 -8.113,1.746 -11.215,0 -19.723,-9.86 -22.235,-19.918 -2.515,-9.668 0.957,-17.598 9.86,-17.598 4.254,0 8.508,1.739 12.761,5.024 l -0.968,-3.868 h 26.488 l 9.09,36.739 c 2.902,11.222 2.316,17.015 0.586,21.656 -2.321,5.613 -8.125,10.641 -18.957,10.641 -8.121,0 -17.598,-3.098 -26.68,-9.094 l -5.027,-20.692 c 5.609,3.872 11.019,5.805 15.082,5.805" /><path
         id="path40"
         style="fill:#231f20;fill-opacity:1;fill-rule:nonzero;stroke:none"
         d="m 636.539,209.02 26.879,0.96 11.602,46.215 h -29.2 l -3.293,-13.34 c -5.41,-0.777 -8.308,4.055 -6.566,10.442 1.355,5.996 6.184,11.601 13.34,11.601 3.094,0 8.117,-1.164 14.117,-5.605 l 20.105,25.32 c -7.925,7.93 -18.175,11.989 -28.23,11.989 -22.039,0 -40.41,-19.528 -46.598,-43.887 -4.632,-18.754 -2.316,-44.668 27.844,-43.695" /><path
         id="path42"
         style="fill:#231f20;fill-opacity:1;fill-rule:nonzero;stroke:none"
         d="m 260.66,103.441 h -27.648 l -21.66,-85.2652 h 51.824 l 5.609,21.8476 h -24.359 l 16.234,63.4176" /><path
         id="path44"
         style="fill:#231f20;fill-opacity:1;fill-rule:nonzero;stroke:none"
         d="m 300.012,45.6289 c -2.125,0 -3.481,1.7422 -3.481,4.2656 -0.383,5.0157 2.907,9.6602 6.766,9.6602 1.941,0 3.285,-1.7383 3.484,-4.4414 0.192,-4.6406 -3.297,-9.4844 -6.769,-9.4844 z m 10.828,42.3438 c -20.496,0 -39.254,-25.125 -37.895,-50.4571 0.575,-12.9609 8.121,-21.0781 19.145,-21.0781 10.055,0 20.297,5.9883 27.644,16.2422 6.766,9.0898 11.024,22.8164 10.442,33.8398 -0.778,12.9493 -8.504,21.4532 -19.336,21.4532" /><path
         id="path46"
         style="fill:#231f20;fill-opacity:1;fill-rule:nonzero;stroke:none"
         d="m 365.273,53.1758 c -1.351,-1.1602 -2.699,-1.9297 -4.253,-1.9297 -2.122,0 -3.481,1.5469 -3.481,4.25 -0.387,6.5781 3.481,11.5977 8.899,11.5977 0.578,0 1.355,-0.1954 2.316,-0.1954 z m 0.582,33.0586 c -10.054,0 -16.429,-2.9063 -21.847,-10.0508 -5.414,-7.3438 -9.09,-18.1797 -8.703,-26.2891 0.586,-8.9023 6.183,-14.6992 14.121,-14.6992 4.054,0 6.961,0.7774 11.98,3.2852 -0.965,-6.9649 -4.836,-10.0625 -12.183,-10.0625 -7.532,0 -13.719,4.4492 -17.207,12.5742 L 324.094,9.86328 C 330.473,3.67578 340.336,0 350.199,0 c 12.18,0 23.387,6.57813 29.196,17.207 1.929,3.2891 3.089,6.9571 5.21,15.8594 l 13.54,53.168 h -32.29" /><path
         id="path48"
         style="fill:#231f20;fill-opacity:1;fill-rule:nonzero;stroke:none"
         d="m 417.387,81.0156 c -5.215,0 -8.504,1.3555 -11.789,4.4492 l -17.02,-67.289 h 25.328 l 17.207,67.289 c -5.215,-3.0937 -9.281,-4.4492 -13.726,-4.4492" /><path
         id="path50"
         style="fill:#231f20;fill-opacity:1;fill-rule:nonzero;stroke:none"
         d="m 423.586,84.6875 c 5.402,0 11.008,7.3477 10.816,13.9219 -0.191,4.0626 -2.129,6.1876 -5.222,6.1876 -5.414,0 -11.02,-7.1564 -10.629,-14.1173 0.187,-3.6719 2.125,-5.9922 5.035,-5.9922" /><path
         id="path52"
         style="fill:#231f20;fill-opacity:1;fill-rule:nonzero;stroke:none"
         d="m 464.281,61.4883 c -2.902,1.164 -4.054,2.5117 -4.054,4.6406 -0.2,2.5156 1.73,4.6367 4.441,4.6367 3.477,0 6.77,-2.7031 9.473,-8.1133 l 11.797,18.1719 c -3.286,2.1289 -5.032,3.0899 -8.317,4.2539 -4.641,1.5469 -10.242,2.6992 -14.887,2.6992 -16.429,0 -29.781,-13.1445 -29.004,-28.414 0.391,-7.1563 3.293,-10.8281 11.028,-14.3086 3.094,-1.3555 4.25,-2.5156 4.25,-4.6406 0.191,-2.8985 -2.516,-5.6133 -5.414,-5.6133 -4.254,0 -7.735,3.4805 -11.02,10.8281 L 420.586,25.5195 c 10.055,-5.9922 17.781,-8.6992 26.098,-8.6992 7.546,0 14.504,2.707 20.109,7.9258 5.996,5.6094 9.863,14.8984 9.477,22.8203 -0.196,4.2539 -1.934,7.9297 -4.645,10.25 -1.738,1.1641 -2.312,1.5469 -7.344,3.6719" /><path
         id="path54"
         style="fill:#231f20;fill-opacity:1;fill-rule:nonzero;stroke:none"
         d="m 515.613,44.2813 c -1.73,0 -3.09,1.5468 -3.09,3.6679 -0.187,1.168 0,2.5235 0.196,3.0977 l 3.476,14.3086 h 10.832 l 5.219,20.8789 h -10.637 l 5.227,19.1486 -47.566,-40.0275 h 11.41 l -5.215,-21.0742 c -1.36,-5.0274 -1.742,-8.7071 -1.742,-11.9922 0.578,-9.0899 6.765,-15.6563 15.078,-15.6563 5.609,0 10.051,1.543 17.207,5.4063 l 6.961,27.457 c -2.903,-3.4727 -5.414,-5.2148 -7.356,-5.2148" /><path
         id="path56"
         style="fill:#231f20;fill-opacity:1;fill-rule:nonzero;stroke:none"
         d="m 551.879,81.0156 c -5.024,0 -8.504,1.3555 -11.789,4.4492 l -17.02,-67.289 h 25.528 l 17.007,67.289 c -5.218,-3.0937 -9.277,-4.4492 -13.726,-4.4492" /><path
         id="path58"
         style="fill:#231f20;fill-opacity:1;fill-rule:nonzero;stroke:none"
         d="m 558.066,84.6875 c 5.411,0 11.211,7.3477 10.825,13.9219 -0.192,4.0626 -2.129,6.1876 -5.215,6.1876 -5.414,0 -11.024,-7.1564 -10.633,-14.1173 0.187,-3.6719 2.125,-5.9922 5.023,-5.9922" /><path
         id="path60"
         style="fill:#231f20;fill-opacity:1;fill-rule:nonzero;stroke:none"
         d="m 596.453,46.4063 c -4.441,0 -6.574,1.5429 -6.765,4.6406 -0.192,4.0664 3.671,6.957 9.085,6.957 1.934,0 5.215,-0.7773 7.536,-1.9258 1.359,-0.582 2.523,-1.3554 5.222,-3.2851 l 7.731,30.3476 c -5.215,3.0938 -11.203,4.8321 -17.59,4.8321 -10.246,0 -19.914,-5.2149 -27.649,-15.0782 -7.925,-10.0468 -12.375,-23.3984 -11.793,-34.6132 0.778,-13.5352 9.668,-21.8438 23.59,-21.8438 5.797,0 10.442,0.9648 17.399,3.2852 l 7.734,30.3593 c -5.019,-2.1328 -10.441,-3.6757 -14.5,-3.6757" /><path
         id="path62"
         style="fill:#231f20;fill-opacity:1;fill-rule:nonzero;stroke:none"
         d="m 653.207,70.7656 c 3.285,0 6.574,-2.7031 9.473,-8.1133 l 11.793,18.1719 c -3.285,2.1289 -5.215,3.0899 -8.305,4.2539 -4.84,1.5469 -10.449,2.6992 -14.898,2.6992 -16.43,0 -29.77,-13.1445 -29.196,-28.414 0.586,-7.1563 3.489,-10.8281 11.219,-14.3086 3.098,-1.3555 4.25,-2.5156 4.25,-4.6406 0.195,-2.8985 -2.508,-5.6133 -5.605,-5.6133 -4.063,0 -7.543,3.4805 -10.825,10.8281 L 609.125,25.5195 c 9.859,-5.9922 17.793,-8.6992 25.91,-8.6992 7.539,0 14.5,2.707 20.301,7.9258 5.992,5.6094 9.859,14.8984 9.473,22.8203 -0.196,4.2539 -2.129,7.9297 -4.836,10.25 -1.743,1.1641 -2.321,1.5469 -7.344,3.6719 -2.707,1.164 -3.867,2.5117 -4.059,4.6406 0,2.5156 1.926,4.6367 4.637,4.6367" /><path
         id="path64"
         style="fill:#231f20;fill-opacity:1;fill-rule:nonzero;stroke:none"
         d="m 1072.69,161.84 -3.29,-13.344 c -2.52,-10.242 -2.52,-10.824 -2.7,-12.566 -1.17,-11.407 1.55,-17.789 8.12,-21.274 2.31,-1.16 4.83,-1.742 7.73,-1.742 5.61,0 11.22,1.941 17.02,5.609 l 6.96,28.04 c -3.29,-4.45 -6.19,-5.801 -7.93,-5.801 -1.93,0 -3.1,1.351 -3.1,4.449 0,0.773 -0.19,1.547 1.75,9.477 l 1.93,7.152 h 10.83 l 4.83,19.914 h -10.82 l 4.63,19.137 -44.94,-39.067 8.98,0.016" /><path
         id="path66"
         style="fill:#231f20;fill-opacity:1;fill-rule:nonzero;stroke:none"
         d="m 1064.17,167.055 c 2.13,8.89 -1.54,16.05 -8.11,16.05 -2.32,0 -5.61,-1.156 -8.91,-3.675 -2.31,-1.93 -6.17,-6.379 -9.08,-11.211 l 3.49,13.535 h -26.5 l -17.017,-67.676 h 26.497 l 6.57,26.297 c 2.52,9.48 5.22,13.348 8.32,16.242 1.16,-4.062 4.25,-6.762 8.12,-6.762 5.79,0 11.79,5.211 14.88,11.985 l 1.74,5.215" /><path
         id="path68"
         style="fill:#231f20;fill-opacity:1;fill-rule:nonzero;stroke:none"
         d="m 977.848,148.688 c -1.168,-4.25 -4.453,-7.536 -7.551,-7.536 -3.285,0 -5.027,3.286 -3.859,7.536 1.156,4.257 4.441,7.542 7.539,7.542 3.285,0 4.828,-3.285 3.871,-7.542 z m 2.699,34.417 c -16.629,0 -31.52,-15.464 -36.356,-35.191 -2.511,-10.242 -1.929,-19.328 1.547,-25.719 3.289,-5.996 9.09,-9.668 16.055,-9.668 0.574,0 0.773,0 1.352,0 3.293,0 7.152,0.778 10.628,2.328 12.575,5.403 22.051,17.786 25.915,33.059 5.032,19.727 -2.129,35.191 -19.141,35.191" /><path
         id="path70"
         style="fill:#231f20;fill-opacity:1;fill-rule:nonzero;stroke:none"
         d="m 912.969,148.305 c -1.36,-5.028 -4.453,-8.117 -7.739,-8.117 -1.359,0 -2.515,0.574 -3.484,1.738 l 3.68,14.304 c 0.961,0.387 1.929,0.387 2.898,0.387 4.063,0 5.801,-3.476 4.645,-8.312 z m 4.25,33.254 H 885.313 L 863.855,96.2891 h 26.293 l 4.832,19.1449 c 2.708,-1.743 5.993,-2.907 9.668,-2.907 13.34,0 28.235,14.707 33.262,35.008 2.895,11.598 1.543,21.266 -3.094,27.254 -2.902,3.68 -8.507,6.77 -17.597,6.77" /><path
         id="path72"
         style="fill:#231f20;fill-opacity:1;fill-rule:nonzero;stroke:none"
         d="m 866.262,146.758 c -0.77,2.32 -2.121,5.41 -10.828,9.859 -2.899,1.547 -5.805,2.516 -4.836,6.379 0.586,1.938 2.129,3.867 4.644,3.867 2.707,0 6.574,-1.929 9.863,-8.117 l 11.016,17.598 c -7.144,4.633 -15.277,6.761 -23.973,6.761 -16.625,0 -25.136,-10.832 -27.652,-20.878 -1.351,-5.024 -0.965,-9.864 0.973,-13.731 0.969,-1.738 2.699,-4.254 9.082,-7.344 2.125,-0.964 6.578,-2.129 5.414,-6.761 -0.578,-2.328 -2.703,-4.84 -5.793,-4.84 -3.68,0 -8.902,3.285 -11.609,11.211 l -11.211,-19.918 c 8.703,-5.793 17.789,-8.317 26.097,-8.317 17.602,0 26.106,11.219 28.813,22.243 1.164,4.445 1.164,8.703 0,11.988" /><path
         id="path74"
         style="fill:#231f20;fill-opacity:1;fill-rule:nonzero;stroke:none"
         d="m 815.117,173.828 c -1.75,5.602 -6.383,9.277 -12.574,9.277 -5.605,0 -11.98,-3.285 -17.586,-9.277 l 1.934,7.926 H 760.785 L 743.77,114.078 h 26.293 l 11.214,45.055 c 1.743,1.937 3.68,2.898 5.223,2.898 2.516,0 4.445,-2.129 2.516,-9.668 l -9.481,-38.285 h 24.367 l 10.641,42.152 c 2.316,9.282 1.926,13.731 0.574,17.598" /><path
         id="path76"
         style="fill:#231f20;fill-opacity:1;fill-rule:nonzero;stroke:none"
         d="m 713.891,128.586 c -1.547,-0.969 -3.481,-1.555 -4.637,-1.555 -2.906,0 -4.254,2.52 -3.285,5.996 0.769,3.286 3.285,5.805 6.375,5.805 1.164,0 2.511,-0.387 3.867,-0.973 z m 32.48,43.879 c -2.312,5.617 -8.113,10.64 -18.937,10.64 -8.133,0 -17.606,-3.089 -26.5,-8.886 l -5.215,-20.883 c 5.801,4.059 11.019,5.797 15.082,5.797 7.73,0 9.277,-5.61 8.121,-10.445 -2.32,1.167 -5.031,1.746 -7.93,1.746 -11.219,0 -19.918,-9.864 -22.426,-19.719 -2.511,-9.871 1.161,-17.801 9.864,-17.801 4.246,0 8.5,1.742 12.758,5.227 l -0.973,-4.063 h 26.488 l 9.281,36.934 c 2.707,11.215 2.329,16.82 0.387,21.453" /><path
         id="path78"
         style="fill:#231f20;fill-opacity:1;fill-rule:nonzero;stroke:none"
         d="m 694.066,166.48 c 2.321,9.282 -1.355,16.625 -8.121,16.625 -2.324,0 -5.601,-1.156 -8.699,-3.675 -2.512,-1.93 -6.379,-6.379 -9.277,-11.211 l 3.476,13.535 h -26.488 l -17.016,-67.676 h 26.489 l 6.765,26.297 c 2.325,9.48 5.032,13.348 8.125,16.242 1.16,-4.062 4.25,-6.762 8.121,-6.762 6.957,0 14.305,7.54 16.625,16.625" /><path
         id="path80"
         style="fill:#231f20;fill-opacity:1;fill-rule:nonzero;stroke:none"
         d="m 578.34,114.078 h 29.004 l 11.988,47.375 h 14.313 l 9.468,37.895 h -57.621 l -9.472,-37.895 h 14.312 L 578.34,114.078" /><path
         id="path82"
         style="fill:#231f20;fill-opacity:1;fill-rule:nonzero;stroke:none"
         d="m 1167.63,176.344 c 0.77,3.285 3.09,5.605 5.6,5.605 2.52,0 3.87,-2.519 3.09,-6.004 -0.77,-3.086 -2.88,-5.402 -7.15,-7.347 -1.74,3.867 -2.12,5.23 -1.54,7.746 z m -16.43,-45.055 c -2.52,0 -3.68,2.129 -2.9,5.414 0.77,2.902 2.32,4.641 5.41,6.77 l 4.44,-8.895 c -2.7,-2.32 -4.83,-3.289 -6.95,-3.289 z m 49.88,31.899 h -16.25 c -1.93,-3.286 -5.02,-7.54 -7.15,-9.852 l -3.68,7.531 c 7.74,7.352 11.22,12.961 12.78,19.731 2.9,12.175 -3.1,20.492 -14.32,20.492 -12.37,0 -24.16,-10.445 -27.45,-24.172 -1.35,-5.996 -0.58,-12.566 1.93,-18.371 -4.06,-2.317 -6.18,-3.664 -8.51,-5.602 -6.38,-5.226 -11.01,-12.183 -12.57,-19.136 -1.15,-5.032 -0.77,-10.063 1.17,-14.125 2.12,-4.446 6.19,-6.579 12.17,-6.579 7.16,0 14.7,2.903 24.75,10.055 l 4.26,-8.691 h 28.43 l -13.35,27.261 c 7.54,8.125 13.35,15.274 17.79,21.458" /></g></g></svg>